<svg xmlns="http://www.w3.org/2000/svg" viewBox="0 0 300 300"><defs><linearGradient id="6f8e79a3-4d6c-4f81-8fdb-1372441cb696" x1="0%" x2="100%" y1="0%" y2="0%" gradientTransform="rotate(25)"><stop offset="0%" stop-color="#D6413F" stop-opacity="1"/><stop offset="100%" stop-color="#4285D3" stop-opacity="1"/></linearGradient></defs><rect width="300" height="300" x="0" y="0" fill="url(#6f8e79a3-4d6c-4f81-8fdb-1372441cb696)" class="logo-background-square"/><g id="338d1c61-d2e8-4875-a4d9-b2d15bc20160" fill="#fff"><path d="M2.49 14.71L1.44 14.71L1.44 4.27L0.15 4.27L0.15 3.19L3.78 3.19L3.78 4.27L2.49 4.27L2.49 14.71ZM7.34 14.71L6.51 14.71L6.51 14.71Q6.50 14.56 6.49 14.41L6.49 14.41L6.49 14.41Q6.48 14.25 6.48 14.08L6.48 14.08L6.48 14.08Q6.29 14.43 5.97 14.62L5.97 14.62L5.97 14.62Q5.66 14.81 5.25 14.81L5.25 14.81L5.25 14.81Q4.13 14.81 4.13 13.31L4.13 13.31L4.13 6.05L5.10 6.05L5.10 13.16L5.10 13.16Q5.10 13.55 5.22 13.71L5.22 13.71L5.22 13.71Q5.35 13.86 5.63 13.86L5.63 13.86L5.63 13.86Q5.85 13.86 6.05 13.74L6.05 13.74L6.05 13.74Q6.26 13.62 6.37 13.34L6.37 13.34L6.37 6.05L7.34 6.05L7.34 14.71ZM11.61 14.71L10.64 14.71L10.64 7.56L10.64 7.56Q10.64 7.18 10.51 7.02L10.51 7.02L10.51 7.02Q10.39 6.86 10.08 6.86L10.08 6.86L10.08 6.86Q9.87 6.86 9.66 6.99L9.66 6.99L9.66 6.99Q9.45 7.11 9.34 7.39L9.34 7.39L9.34 14.71L8.37 14.71L8.37 6.05L9.18 6.05L9.18 6.05Q9.23 6.37 9.23 6.71L9.23 6.71L9.23 6.71Q9.42 6.34 9.74 6.13L9.74 6.13L9.74 6.13Q10.07 5.91 10.47 5.91L10.47 5.91L10.47 5.91Q11.06 5.91 11.33 6.29L11.33 6.29L11.33 6.29Q11.61 6.66 11.61 7.50L11.61 7.50L11.61 14.71ZM14.66 9.77L14.66 7.69L14.66 7.69Q14.66 6.92 14.01 6.92L14.01 6.92L14.01 6.92Q13.41 6.92 13.41 7.69L13.41 7.69L13.41 9.77L14.66 9.77ZM14.66 13.09L14.66 11.19L15.57 11.19L15.57 13.09L15.57 13.09Q15.57 14.84 14.01 14.84L14.01 14.84L14.01 14.84Q12.52 14.84 12.52 13.09L12.52 13.09L12.52 7.69L12.52 7.69Q12.52 6.80 12.90 6.36L12.90 6.36L12.90 6.36Q13.29 5.91 14.01 5.91L14.01 5.91L14.01 5.91Q15.57 5.91 15.57 7.69L15.57 7.69L15.57 10.47L13.41 10.47L13.41 13.09L13.41 13.09Q13.41 13.86 14.01 13.86L14.01 13.86L14.01 13.86Q14.66 13.86 14.66 13.09L14.66 13.09ZM20.73 14.71L19.66 14.71L19.66 9.55L18.03 3.19L19.15 3.19L19.15 3.19Q19.29 3.77 19.45 4.46L19.45 4.46L19.45 4.46Q19.61 5.15 19.78 5.82L19.78 5.82L19.78 5.82Q19.94 6.50 20.06 7.06L20.06 7.06L20.06 7.06Q20.19 7.63 20.24 7.94L20.24 7.94L20.24 7.94Q20.30 7.63 20.43 7.06L20.43 7.06L20.43 7.06Q20.55 6.50 20.71 5.82L20.71 5.82L20.71 5.82Q20.87 5.15 21.05 4.46L21.05 4.46L21.05 4.46Q21.22 3.77 21.38 3.19L21.38 3.19L22.41 3.19L20.73 9.55L20.73 14.71ZM22.44 13.12L22.44 7.64L22.44 7.64Q22.44 6.80 22.83 6.36L22.83 6.36L22.83 6.36Q23.23 5.91 24.04 5.91L24.04 5.91L24.04 5.91Q24.84 5.91 25.24 6.36L25.24 6.36L25.24 6.36Q25.63 6.80 25.63 7.64L25.63 7.64L25.63 13.12L25.63 13.12Q25.63 13.96 25.24 14.40L25.24 14.40L25.24 14.40Q24.84 14.84 24.04 14.84L24.04 14.84L24.04 14.84Q23.23 14.84 22.83 14.40L22.83 14.40L22.83 14.40Q22.44 13.96 22.44 13.12L22.44 13.12ZM24.70 13.09L24.70 7.67L24.70 7.67Q24.70 7.31 24.56 7.11L24.56 7.11L24.56 7.11Q24.43 6.90 24.04 6.90L24.04 6.90L24.04 6.90Q23.65 6.90 23.51 7.11L23.51 7.11L23.51 7.11Q23.38 7.31 23.38 7.67L23.38 7.67L23.38 13.12L23.38 13.12Q23.38 13.48 23.51 13.67L23.51 13.67L23.51 13.67Q23.65 13.86 24.04 13.86L24.04 13.86L24.04 13.86Q24.43 13.86 24.56 13.66L24.56 13.66L24.56 13.66Q24.70 13.47 24.70 13.09L24.70 13.09ZM29.75 14.71L28.92 14.71L28.92 14.71Q28.91 14.56 28.90 14.41L28.90 14.41L28.90 14.41Q28.90 14.25 28.90 14.08L28.90 14.08L28.90 14.08Q28.70 14.43 28.39 14.62L28.39 14.62L28.39 14.62Q28.07 14.81 27.66 14.81L27.66 14.81L27.66 14.81Q26.54 14.81 26.54 13.31L26.54 13.31L26.54 6.05L27.51 6.05L27.51 13.16L27.51 13.16Q27.51 13.55 27.64 13.71L27.64 13.71L27.64 13.71Q27.76 13.86 28.04 13.86L28.04 13.86L28.04 13.86Q28.27 13.86 28.47 13.74L28.47 13.74L28.47 13.74Q28.67 13.62 28.78 13.34L28.78 13.34L28.78 6.05L29.75 6.05L29.75 14.71ZM31.75 14.71L30.79 14.71L30.79 6.05L31.60 6.05L31.60 6.05Q31.64 6.37 31.64 6.68L31.64 6.68L31.64 6.68Q31.82 6.30 32.08 6.13L32.08 6.13L32.08 6.13Q32.34 5.96 32.69 5.96L32.69 5.96L32.69 5.96Q32.87 5.96 32.98 6.02L32.98 6.02L32.98 7.10L32.98 7.10Q32.91 7.04 32.79 7.02L32.79 7.02L32.79 7.02Q32.66 7 32.55 7L32.55 7L32.55 7Q32.33 7 32.11 7.11L32.11 7.11L32.11 7.11Q31.89 7.21 31.75 7.52L31.75 7.52L31.75 14.71ZM38.05 12.88L38.05 10.49L39.02 10.49L39.02 12.87L39.02 12.87Q39.02 13.87 38.62 14.36L38.62 14.36L38.62 14.36Q38.22 14.84 37.34 14.84L37.34 14.84L37.34 14.84Q35.50 14.84 35.50 12.89L35.50 12.89L35.50 5.05L35.50 5.05Q35.50 3.07 37.34 3.07L37.34 3.07L37.34 3.07Q39.02 3.07 39.02 5.03L39.02 5.03L39.02 7.07L38.05 7.07L38.05 5.04L38.05 5.04Q38.05 4.58 37.90 4.36L37.90 4.36L37.90 4.36Q37.74 4.14 37.34 4.14L37.34 4.14L37.34 4.14Q36.58 4.14 36.58 5.04L36.58 5.04L36.58 12.88L36.58 12.88Q36.58 13.79 37.34 13.79L37.34 13.79L37.34 13.79Q37.73 13.79 37.89 13.57L37.89 13.57L37.89 13.57Q38.05 13.34 38.05 12.88L38.05 12.88ZM39.83 13.12L39.83 7.64L39.83 7.64Q39.83 6.80 40.22 6.36L40.22 6.36L40.22 6.36Q40.61 5.91 41.43 5.91L41.43 5.91L41.43 5.91Q42.22 5.91 42.62 6.36L42.62 6.36L42.62 6.36Q43.02 6.80 43.02 7.64L43.02 7.64L43.02 13.12L43.02 13.12Q43.02 13.96 42.62 14.40L42.62 14.40L42.62 14.40Q42.22 14.84 41.43 14.84L41.43 14.84L41.43 14.84Q40.61 14.84 40.22 14.40L40.22 14.40L40.22 14.40Q39.83 13.96 39.83 13.12L39.83 13.12ZM42.08 13.09L42.08 7.67L42.08 7.67Q42.08 7.31 41.95 7.11L41.95 7.11L41.95 7.11Q41.82 6.90 41.43 6.90L41.43 6.90L41.43 6.90Q41.03 6.90 40.90 7.11L40.90 7.11L40.90 7.11Q40.77 7.31 40.77 7.67L40.77 7.67L40.77 13.12L40.77 13.12Q40.77 13.48 40.90 13.67L40.90 13.67L40.90 13.67Q41.03 13.86 41.43 13.86L41.43 13.86L41.43 13.86Q41.82 13.86 41.95 13.66L41.95 13.66L41.95 13.66Q42.08 13.47 42.08 13.09L42.08 13.09ZM46.21 13.22L46.21 7.46L46.21 7.46Q45.98 6.89 45.46 6.89L45.46 6.89L45.46 6.89Q45.14 6.89 45.00 7.05L45.00 7.05L45.00 7.05Q44.86 7.21 44.86 7.60L44.86 7.60L44.86 13.06L44.86 13.06Q44.86 13.47 45.00 13.63L45.00 13.63L45.00 13.63Q45.14 13.79 45.46 13.79L45.46 13.79L45.46 13.79Q45.98 13.79 46.21 13.22L46.21 13.22ZM47.17 14.71L46.35 14.71L46.35 14.71Q46.34 14.56 46.33 14.40L46.33 14.40L46.33 14.40Q46.33 14.24 46.33 14.07L46.33 14.07L46.33 14.07Q46.17 14.42 45.89 14.62L45.89 14.62L45.89 14.62Q45.60 14.81 45.12 14.81L45.12 14.81L45.12 14.81Q43.89 14.81 43.89 13.19L43.89 13.19L43.89 7.50L43.89 7.50Q43.89 6.65 44.19 6.28L44.19 6.28L44.19 6.28Q44.49 5.91 45.16 5.91L45.16 5.91L45.16 5.91Q45.50 5.91 45.77 6.06L45.77 6.06L45.77 6.06Q46.05 6.22 46.21 6.47L46.21 6.47L46.21 3.19L47.17 3.19L47.17 14.71ZM50.20 9.77L50.20 7.69L50.20 7.69Q50.20 6.92 49.56 6.92L49.56 6.92L49.56 6.92Q48.96 6.92 48.96 7.69L48.96 7.69L48.96 9.77L50.20 9.77ZM50.20 13.09L50.20 11.19L51.11 11.19L51.11 13.09L51.11 13.09Q51.11 14.84 49.56 14.84L49.56 14.84L49.56 14.84Q48.06 14.84 48.06 13.09L48.06 13.09L48.06 7.69L48.06 7.69Q48.06 6.80 48.45 6.36L48.45 6.36L48.45 6.36Q48.83 5.91 49.56 5.91L49.56 5.91L49.56 5.91Q51.11 5.91 51.11 7.69L51.11 7.69L51.11 10.47L48.96 10.47L48.96 13.09L48.96 13.09Q48.96 13.86 49.56 13.86L49.56 13.86L49.56 13.86Q50.20 13.86 50.20 13.09L50.20 13.09Z" transform="matrix(5.720758769292931,0,0,5.720758769292931,3.3769553276793336,175.1039376268392)"/></g><g id="a70b8bdc-2067-4559-8c3e-0741fc905347" fill="#fff" stroke="none"><path d="M42.021 89.823l56.348-36.234-15.803 7.63.008.073-.047-.054-.263.127.017.024zM79.395 61.174l-40.5-3.783-2.084 33.859zM3.71 38.712l31.208 53.35 2.148-34.916zM95.209 45.172L80.775 27.29l-1.543 5.226 16.696 13.659zM98.135 50.979L79.758 35.645l2.523 22.987zM61.512 33.498l18.246 21.006-2.334-21.148zM59.756 34.836L39.467 54.979l40.965 3.829zM58.445 33.191l-21.771-5.826 2.3 25.606zM37.133 54.393l-2.311-25.856-28.046 9.102zM8.923 35.031l25.604-8.739-8.868-6.425zM1.63 26.184l1.62 11.301 17.707-16.463zM28.355 14.604L7.837 21.987l18.264-4.878zM36.751 24.86l23.38 6.336 17.017-.289 1.524-5.158-10.721-5.896-19.778-5.367-15.917-.548-4.183 4.648z" transform="matrix(1.7237555536197666,0,0,1.7237555536197666,63.81307899712835,15.974295567091296)"/></g></svg>